<?xml version="1.0" encoding="utf-8"?>
<svg viewBox="96.684 126.878 275.604 264.532" xmlns="http://www.w3.org/2000/svg">
  <path d="M 120.128 357.052 L 352.949 357.052 L 372.288 391.41 L 96.684 391.41 L 120.128 357.052" style="fill-opacity: 1; fill-rule: evenodd; stroke: none;" id="path14"/>
  <path d="M 120.128 161.236 L 348.846 161.236 L 372.288 126.878 L 96.684 126.878 L 120.128 161.236" style="fill-opacity: 1; fill-rule: evenodd; stroke: none;" id="path16"/>
  <path d="M 290.884 272.838 L 290.884 243.611 L 334.528 243.611 L 334.528 341.119 L 240.967 341.119 L 240.967 177.226 L 334.528 177.226 L 334.528 208.286 L 275.325 208.286 L 275.325 310.002 L 300.606 310.002 L 300.606 297.47 L 300.606 284.939 L 300.606 274.677 L 290.884 274.677 L 290.884 272.838" style="fill-opacity: 1; fill-rule: nonzero; stroke: none;" id="path18"/>
  <path d="M 164.262 208.286 L 164.262 310.002 L 223.466 310.002 L 223.466 341.119 L 159.346 341.119 L 152.593 341.119 L 129.905 341.119 L 129.905 318.43 L 129.905 306.709 L 129.905 177.226 L 164.262 177.226 L 164.262 208.286" style="fill-opacity: 1; fill-rule: nonzero; stroke: none;" id="path20"/>
</svg>